<?xml version="1.0" encoding="UTF-8" standalone="no"?>
<!-- Created with Inkscape (http://www.inkscape.org/) -->

<svg
   xmlns:dc="http://purl.org/dc/elements/1.1/"
   xmlns:cc="http://creativecommons.org/ns#"
   xmlns:rdf="http://www.w3.org/1999/02/22-rdf-syntax-ns#"
   xmlns:svg="http://www.w3.org/2000/svg"
   xmlns="http://www.w3.org/2000/svg"
   xmlns:sodipodi="http://sodipodi.sourceforge.net/DTD/sodipodi-0.dtd"
   xmlns:inkscape="http://www.inkscape.org/namespaces/inkscape"
   width="210mm"
   height="297mm"
   viewBox="0 0 210 297"
   version="1.1"
   id="svg4645"
   inkscape:version="0.92.1 r15371"
   sodipodi:docname="cursiveName.svg">
  <defs
     id="defs4639" />
  <sodipodi:namedview
     id="base"
     pagecolor="#ffffff"
     bordercolor="#666666"
     borderopacity="1.0"
     inkscape:pageopacity="0.0"
     inkscape:pageshadow="2"
     inkscape:zoom="0.35"
     inkscape:cx="-168.57143"
     inkscape:cy="560"
     inkscape:document-units="mm"
     inkscape:current-layer="layer1"
     showgrid="false"
     showborder="false"
     inkscape:window-width="1920"
     inkscape:window-height="1017"
     inkscape:window-x="-8"
     inkscape:window-y="-8"
     inkscape:window-maximized="1" />
  <metadata
     id="metadata4642">
    <rdf:RDF>
      <cc:Work
         rdf:about="">
        <dc:format>image/svg+xml</dc:format>
        <dc:type
           rdf:resource="http://purl.org/dc/dcmitype/StillImage" />
        <dc:title></dc:title>
      </cc:Work>
    </rdf:RDF>
  </metadata>
  <g
     inkscape:label="Layer 1"
     inkscape:groupmode="layer"
     id="layer1">
    <flowRoot
       xml:space="preserve"
       id="flowRoot5270"
       style="fill:black;fill-opacity:1;stroke:none;font-family:'5th Grade Cursive';font-style:normal;font-weight:normal;font-size:192px;line-height:1.25;letter-spacing:0px;word-spacing:0px;-inkscape-font-specification:'5th Grade Cursive';font-stretch:normal;font-variant:normal;"><flowRegion
         id="flowRegion5272"
         style="-inkscape-font-specification:'5th Grade Cursive';font-family:'5th Grade Cursive';font-weight:normal;font-style:normal;font-stretch:normal;font-variant:normal;font-size:192px;"><rect
           id="rect5274"
           width="1862.8572"
           height="397.14285"
           x="-1688.5714"
           y="-143.1946"
           style="-inkscape-font-specification:'5th Grade Cursive';font-family:'5th Grade Cursive';font-weight:normal;font-style:normal;font-stretch:normal;font-variant:normal;font-size:192px;" /></flowRegion><flowPara
         id="flowPara5276"></flowPara></flowRoot>    <text
       xml:space="preserve"
       style="font-style:normal;font-weight:normal;font-size:10.58333302px;line-height:1.25;font-family:sans-serif;letter-spacing:0px;word-spacing:0px;fill:#000000;fill-opacity:1;stroke:none;stroke-width:0.26458332"
       x="-418.04166"
       y="-12.184524"
       id="text5280"><tspan
         sodipodi:role="line"
         id="tspan5278"
         x="-418.04166"
         y="-2.8207543"
         style="stroke-width:0.26458332"></tspan></text>
    <path
       inkscape:connector-curvature="0"
       id="path5323"
       style="font-style:normal;font-variant:normal;font-weight:normal;font-stretch:normal;font-size:medium;line-height:1.25;font-family:'5th Grade Cursive';-inkscape-font-specification:'5th Grade Cursive';letter-spacing:0px;word-spacing:0px;fill:#000000;fill-opacity:1;stroke:none;stroke-width:0.26458332"
       d="m -434.34489,-52.647878 h 0.74083 q 4.65667,0 8.92527,6.63222 3.9864,7.16139 3.9864,20.284722 0,7.337777 -1.48167,17.6388879 h 0.0706 q 3.1397,-1.6933333 4.65666,-5.8913889 0.52917,-1.375833 1.02304,-3.809999 l 0.10584,-0.282223 h 0.0706 l 0.42333,2.081389 q -0.1411,2.046111 -1.76389,5.256389 -2.39888,3.1749996 -4.79777,4.3391663 l -0.52917,3.457222 q 0.67027,0.4233333 1.05833,0.9172221 v 0.1411111 l -0.17639,0.1411111 -1.02304,-0.1411111 q -1.55223,11.1477774 -3.38667,16.4394435 -1.62279,4.833056 -4.65666,8.854722 -4.23334,4.868332 -9.13697,4.868332 -5.3622,0 -7.97277,-5.326943 -1.0936,-2.716389 -1.0936,-4.691944 v -1.199445 q 0,-5.432777 4.93887,-11.3594437 4.05697,-4.3391664 6.2089,-5.75027742 4.86833,-3.28083328 8.1139,-4.40972198 v -0.1058333 q -10.12473,-4.5508333 -13.93473,-13.7230546 -2.2225,-5.609167 -2.2225,-11.359444 0,-11.041943 6.63223,-20.214166 2.71637,-2.786943 5.2211,-2.786943 z m -9.56027,20.74333 v 1.62278 q 0,10.442221 6.985,18.732498 3.6336,3.5277776 6.42054,4.868333 l 2.50473,1.3052776 q 3.10444,-1.093611 3.10444,-1.3758333 1.23473,-11.2183323 1.23473,-17.9211103 0,-12.876389 -4.19807,-20.954999 -3.10443,-4.868333 -6.77333,-4.868333 h -0.1411 q -5.04473,0 -8.32557,12.029723 -0.81137,3.563054 -0.81137,6.561664 z m 17.53304,27.269722 v 0.070556 l 1.09363,0.458611 0.17637,-0.9525 h -0.0705 z m -19.685,21.41361 q 0,4.868333 4.26863,7.655278 1.44637,0.881944 3.38667,0.881944 6.70276,0 10.26583,-12.523611 1.34054,-4.5861105 2.71637,-15.4163878 l -2.9986,-1.1288889 q -4.83307,1.9402778 -9.17223,5.1152776 -3.175,2.8927777 -4.05694,4.4802777 -4.40973,6.1030554 -4.40973,10.9361104 z" />
    <path
       inkscape:connector-curvature="0"
       id="path5325"
       style="font-style:normal;font-variant:normal;font-weight:normal;font-stretch:normal;font-size:medium;line-height:1.25;font-family:'5th Grade Cursive';-inkscape-font-specification:'5th Grade Cursive';letter-spacing:0px;word-spacing:0px;fill:#000000;fill-opacity:1;stroke:none;stroke-width:0.26458332"
       d="m -396.47473,-17.228992 q 0.17637,0.352778 0.17637,1.093611 0.0353,0.705556 -0.1411,1.234722 -0.70557,2.751667 -1.65807,4.445 -0.9172,1.6580553 -1.94027,2.2930553 -0.59973,0.2822223 -1.27,0.3880556 -0.67027,0.070556 -1.30527,-0.141111 -0.635,-0.2116666 -1.19946,-0.8113889 -0.52917,-0.5997221 -0.9172,-1.728611 -0.28223,-0.529167 -0.38807,-1.128889 -0.0706,-0.635 -0.1764,-1.305278 -0.42333,1.411112 -1.02303,2.2225 -0.56447,0.7761113 -1.09363,1.4463893 -0.74084,0.917222 -1.905,1.2699997 -1.12887,0.3175 -2.32834,0.070556 -1.19943,-0.2469443 -2.29303,-1.0583333 -1.05834,-0.8113887 -1.69334,-2.2225007 -0.70556,-1.446388 -0.88196,-2.857499 -0.21167,-1.446389 -0.0705,-2.716389 0.14111,-1.305278 0.52917,-2.398889 0.35277,-1.128889 0.7761,-2.010833 0.52917,-0.811389 1.23473,-1.552222 0.70554,-0.740834 1.44637,-1.305278 0.74084,-0.599722 1.51697,-0.9525 0.7761,-0.388056 1.4111,-0.458611 0.52917,-0.03528 1.23473,0.105833 0.74083,0.105834 1.44637,0.3175 0.70557,0.211667 1.27,0.493889 0.59973,0.246945 0.8114,0.458611 0.4939,-0.176389 0.91723,-0.105833 0.42333,0.07056 0.42333,0.246944 0,0.282223 -0.0353,1.340556 -0.0353,1.058333 -0.0705,2.504722 0,1.446389 0.0353,3.104444 0.0706,1.622778 0.24693,3.069167 0.24697,2.187222 0.635,3.104444 0.42334,0.9172227 1.09363,0.9172227 0.74084,0 1.34054,-0.4938897 0.635,-0.493889 1.16417,-1.234722 0.52916,-0.740833 0.91723,-1.658055 0.42333,-0.9525 0.70556,-1.799167 0.28221,-1.023055 0.45861,-1.728611 0.17639,-0.740833 0.21166,-1.023055 0.0706,-0.3175 0.1411,-0.176389 0.0706,0.105833 0.24697,0.740833 z m -14.0053,7.5141663 q 0.88196,0.035278 1.6228,-0.4938893 0.7761,-0.564444 1.37583,-1.411111 0.5997,-0.846666 1.02304,-1.905 0.45863,-1.058333 0.74083,-2.081388 -0.0705,-0.493889 -0.10583,-1.234722 -0.0353,-0.776112 -0.0353,-1.552223 0,-0.776111 0.0353,-1.446388 0.0353,-0.670278 0.0706,-1.058334 0.0353,-0.423333 0.0353,-0.705555 v -0.529167 q -1.27,-0.811389 -2.61054,-1.128889 -1.34056,-0.352777 -2.57529,-0.07055 -1.23471,0.282222 -2.25777,1.128889 -0.98777,0.811388 -1.55223,2.257777 -0.4586,1.481667 -0.35277,3.280833 0.1411,1.763889 0.74083,3.316111 0.59973,1.552223 1.5875,2.575278 0.98777,1.0230556 2.25777,1.0583333 z" />
    <path
       inkscape:connector-curvature="0"
       id="path5327"
       style="font-style:normal;font-variant:normal;font-weight:normal;font-stretch:normal;font-size:medium;line-height:1.25;font-family:'5th Grade Cursive';-inkscape-font-specification:'5th Grade Cursive';letter-spacing:0px;word-spacing:0px;fill:#000000;fill-opacity:1;stroke:none;stroke-width:0.26458332"
       d="m -384.20746,-9.0798257 q -0.9525,0.635 -2.29304,0.9525 -1.30529,0.282222 -2.61056,0.3527776 -1.27,0.070556 -2.57527,-0.2822223 -1.3053,-0.3880553 -2.3989,-1.2699997 -2.25777,-1.7991669 -2.82223,-4.3391669 -0.5997,-2.575277 0.42333,-5.785555 0.1764,-0.423333 0.3528,-0.811389 0.21167,-0.388055 0.42333,-0.740833 0.49387,-0.811389 1.16417,-1.552222 0.67027,-0.776111 1.4111,-1.340556 0.74083,-0.599722 1.48167,-0.987777 0.74083,-0.388056 1.34056,-0.493889 0.56444,-0.07056 1.23471,0.07055 0.70556,0.105834 1.34056,0.352778 0.635,0.211667 1.1289,0.493889 0.49387,0.246944 0.70554,0.493889 0.17639,0.211666 0.17639,0.564444 0.0353,0.352778 -0.10583,0.670278 -0.10583,0.3175 -0.42333,0.529167 -0.28223,0.211666 -0.74084,0.141111 -0.49389,-0.07056 -0.70556,-0.211667 -0.17637,-0.176389 -0.24694,-0.3175 -0.0706,-0.176389 -0.17639,-0.3175 -0.0705,-0.141111 -0.35277,-0.246944 -0.9525,-0.352778 -1.97557,-0.3175 -0.98777,0.03528 -1.905,0.458611 -0.88193,0.423333 -1.62277,1.199444 -0.70556,0.776111 -1.12889,1.940278 -0.52917,1.411111 -0.52917,2.822222 0,1.375833 0.45863,2.610555 0.49387,1.234722 1.37583,2.293056 0.88194,1.023055 2.08137,1.728611 1.23473,0.7055553 2.54,0.7055553 1.34057,-0.035278 2.96334,-0.5291663 1.62279,-0.493889 3.06916,-1.799167 1.4464,-1.340555 2.04613,-3.069166 0.35277,-1.234723 0.56444,-2.293056 0.21166,-1.058333 0.35277,-0.564444 0.14113,0.458611 0.24696,0.9525 0.10583,0.352777 0.0705,0.917222 -0.0353,0.564444 -0.21167,1.128889 -0.17637,0.635 -0.42333,1.481666 -0.24694,0.811389 -0.84667,1.693334 -0.56444,0.881944 -1.16417,1.446388 -0.56443,0.5644446 -1.69333,1.2700003 z" />
    <path
       inkscape:connector-curvature="0"
       id="path5329"
       style="font-style:normal;font-variant:normal;font-weight:normal;font-stretch:normal;font-size:medium;line-height:1.25;font-family:'5th Grade Cursive';-inkscape-font-specification:'5th Grade Cursive';letter-spacing:0px;word-spacing:0px;fill:#000000;fill-opacity:1;stroke:none;stroke-width:0.26458332"
       d="m -361.07073,-15.394548 q -0.24696,0.493889 -0.77613,0.705556 -0.49387,0.211667 -1.27,0.141111 -0.7761,-0.105833 -1.30527,-0.246944 -0.4939,-0.176389 -1.0936,-0.458612 -0.42334,1.799167 -1.19946,3.104445 -0.49388,0.811389 -1.09361,1.5875 -0.59973,0.7408329 -1.30527,1.3405553 -0.67029,0.599722 -1.41112,0.9877776 -0.70554,0.3527777 -1.41111,0.3880554 -0.28223,0.035278 -0.67027,0.070556 -0.38806,0 -0.74083,0 -0.21167,0 -0.45863,0 -0.21166,-0.035278 -0.42333,-0.070556 -1.83444,-0.2116667 -3.45721,-1.5169443 -2.25779,-1.799167 -2.82223,-4.339166 -0.59973,-2.54 0.45861,-5.750278 0.14112,-0.458611 0.3175,-0.846667 0.21166,-0.388055 0.42333,-0.776111 0.45863,-0.811388 1.1289,-1.552222 0.70556,-0.740833 1.44639,-1.305277 0.74084,-0.599723 1.48167,-0.9525 0.74083,-0.388056 1.34054,-0.458612 0.4939,-0.105833 1.05833,-0.03528 0.38807,0 0.70557,0.07055 0.35277,0.07056 0.70556,0.141111 0.17637,-0.07055 0.35277,-0.105833 0.21167,-0.03528 0.42333,-0.07056 0.35277,0 0.70557,0.07056 0.38804,0.07056 0.81137,0.3175 0.91723,0.388056 1.65806,1.164167 0.77611,0.776111 1.30527,1.905 0.635,1.446388 0.8114,2.822222 0.21167,1.375833 0.0353,2.645833 1.34056,0.282222 2.3989,-0.105833 1.05833,-0.423334 1.30527,-0.987778 0.17639,-0.670278 0.35279,-0.423334 0.17637,0.246945 0.35277,0.776112 0.1764,0.529166 -0.1411,1.763888 z m -9.2075,-7.725833 q -0.3528,0.105834 -0.70557,0.141111 -0.3175,0.03528 -0.59973,-0.07055 -0.38804,0.493889 0,1.622778 0.38807,1.093611 1.86973,2.434166 0.4939,0.423334 1.27,0.9525 0.77611,0.493889 1.65807,0.9525 -0.10584,-0.917222 -0.38807,-1.799166 -0.24693,-0.917223 -0.635,-1.693334 -0.38806,-0.776111 -0.91723,-1.375833 -0.49387,-0.599722 -1.0936,-0.9525 -0.28223,-0.176389 -0.4586,-0.211667 z m -2.99863,13.4055553 q 0.59973,0.1058333 1.41113,0.035278 0.81137,-0.1058334 1.65804,-0.4938893 0.84666,-0.388055 1.62279,-1.128889 0.7761,-0.776111 1.30527,-1.975555 0.52917,-1.164167 0.52917,-2.610556 -1.09361,-0.634999 -2.29307,-1.481666 -1.16416,-0.846667 -2.08137,-1.834444 -0.91723,-0.987778 -1.4464,-1.975556 -0.49389,-1.023055 -0.28223,-1.940278 0,-0.105833 0.0706,-0.246944 -0.52917,-0.141111 -1.23473,-0.141111 -1.51694,0.07055 -2.82221,0.987778 -1.27,0.881944 -1.905,2.610555 -0.52917,1.446389 -0.45863,2.822222 0.10584,1.340556 0.56446,2.504722 0.49388,1.164167 1.19944,2.081389 0.74083,0.917222 1.4464,1.552222 0.5997,0.493889 1.2347,0.811389 0.6703,0.3175002 1.48167,0.4233336 z" />
    <path
       inkscape:connector-curvature="0"
       id="path5331"
       style="font-style:normal;font-variant:normal;font-weight:normal;font-stretch:normal;font-size:medium;line-height:1.25;font-family:'5th Grade Cursive';-inkscape-font-specification:'5th Grade Cursive';letter-spacing:0px;word-spacing:0px;fill:#000000;fill-opacity:1;stroke:none;stroke-width:0.26458332"
       d="m -342.5444,-15.465103 q -0.24693,0.564444 -0.91723,0.740833 -0.635,0.176389 -1.27,0.105833 -0.70553,-0.141111 -1.16416,-0.246944 -0.45861,-0.141111 -1.09361,-0.423333 -0.38806,1.834444 -1.23473,3.104444 -0.49387,0.811389 -1.12887,1.5875 -0.59973,0.7761109 -1.30529,1.3758333 -0.67027,0.599722 -1.37584,0.9877776 -0.70553,0.3880554 -1.34053,0.4233334 -1.02307,0.070555 -1.7639,0.035278 -0.74084,-0.035278 -1.37584,-0.2116666 -0.635,-0.176389 -1.19943,-0.5644444 -0.52917,-0.3880556 -1.1289,-1.0583333 -0.74083,-0.846667 -1.30527,-2.328334 -0.56446,-1.481666 -0.9525,-3.280833 -0.42333,-1.799166 -0.67029,-3.81 -0.28221,-2.010833 -0.42334,-3.915833 -0.17637,-1.940277 -0.24693,-3.598333 -0.0706,-1.693333 -0.0706,-2.8575 -0.0353,-1.658056 0,-3.598333 0.0353,-1.940277 0.21167,-4.233334 0.14113,-2.293053 0.52917,-4.938887 0.35279,-2.681112 1.02306,-5.820833 0.38807,-1.693333 1.0936,-2.786946 0.70557,-1.128887 1.23473,-1.446387 0.635,-0.458613 1.1289,-0.423333 0.49387,0.07055 0.84667,0.493887 0.35277,0.388056 0.67027,1.199446 1.19943,3.351387 1.48166,7.196666 0.28224,3.845277 -0.56443,8.572498 -0.21167,1.340556 -0.42333,2.398889 -0.1764,1.058334 -0.45863,2.116667 -0.24694,1.023056 -0.59971,2.2225 -0.35279,1.164167 -0.84666,2.751667 -0.28224,0.705555 -0.56447,1.693333 -0.2822,0.9525 -0.5997,1.975555 -0.21167,0.493889 -0.4939,1.199445 -0.24693,0.670278 -0.4586,1.340555 -0.24696,0.776111 -0.4939,1.622778 0.28223,1.305278 0.56444,2.398889 0.28223,1.093611 0.70556,2.046111 0.4586,0.9525 1.0936,1.799166 0.6703,0.811389 1.69334,1.552223 0.35279,0.282222 1.23473,0.3880554 0.91723,0.1058333 1.94027,-0.1763887 1.05833,-0.2822227 2.11666,-1.0936117 1.05834,-0.846666 1.72863,-2.398889 0.38804,-1.128888 0.4586,-2.610555 -1.12889,-0.635 -2.29306,-1.481667 -1.16417,-0.846666 -2.08137,-1.763888 -0.88196,-0.9525 -1.41113,-1.940278 -0.52917,-0.987778 -0.38804,-1.905 0.0353,-0.246944 0.17637,-0.635 0.1764,-0.388056 0.45863,-0.776111 0.28221,-0.388056 0.70554,-0.635 0.42333,-0.282222 0.9525,-0.3175 0.635,-0.03528 1.3053,0.282222 0.70553,0.282222 1.30526,0.811389 0.59974,0.529167 1.09361,1.164167 0.52916,0.599722 0.81139,1.199444 0.59974,1.446389 0.74084,2.8575 0.1764,1.411111 0.0353,2.645833 0.74083,0.211667 1.41113,0.211667 0.67026,0 1.12887,-0.211667 0.45863,-0.211667 0.67029,-0.388055 0.21167,-0.176389 0.42334,-0.564445 0.17637,-0.458611 0.21166,-0.529167 0.0705,-0.07055 0.35277,0.881945 0.3175,0.917222 0.10583,1.5875 z m -18.34443,-15.381112 q 0.0353,1.481667 0.10583,3.03389 0.0705,1.552222 0.1411,3.033889 0.10584,1.481667 0.21167,2.751666 0.1411,1.27 0.24694,2.151945 0.0353,-0.105834 0.14113,-0.388056 0.10583,-0.3175 0.21166,-0.670277 0.10584,-0.352778 0.21167,-0.670278 0.10583,-0.3175 0.17637,-0.458611 0.52917,-1.693334 0.88196,-2.928056 0.38804,-1.27 0.67027,-2.398889 0.38807,-1.375833 0.635,-2.469443 0.24694,-1.093613 0.38807,-2.116667 0.17637,-1.023056 0.24693,-2.046113 0.10583,-1.023053 0.21167,-2.257777 0.24693,-3.174999 0.24693,-5.185833 0.0353,-2.010833 -0.1411,-3.386666 -0.1411,-1.375834 -0.42333,-2.293054 -0.24694,-0.917223 -0.4939,-1.869723 -0.49387,-1.44639 -0.81137,-1.552223 -0.3175,-0.105834 -0.6703,0.458613 -0.35277,0.529166 -0.635,1.340553 -0.2822,0.81139 -0.49387,1.693334 -0.1764,0.881946 -0.24696,1.516946 -0.2822,2.257777 -0.49387,4.162777 -0.1764,1.905 -0.28223,3.668889 -0.0706,1.728611 -0.10584,3.421944 0,1.658054 0.0706,3.45722 z m 8.14917,7.47889 q -0.3528,0.07056 -0.4939,0.458611 -0.10584,0.388056 0.0353,0.987778 0.17639,0.564444 0.635,1.305277 0.45863,0.740834 1.30529,1.516945 1.12887,0.9525 2.96334,1.940278 -0.10584,-0.740834 -0.45863,-1.834445 -0.3175,-1.128889 -0.88194,-2.081389 -0.52917,-0.987777 -1.34056,-1.658055 -0.77611,-0.670278 -1.76387,-0.635 z" />
    <path
       inkscape:connector-curvature="0"
       id="path5333"
       style="font-style:normal;font-variant:normal;font-weight:normal;font-stretch:normal;font-size:medium;line-height:1.25;font-family:'5th Grade Cursive';-inkscape-font-specification:'5th Grade Cursive';letter-spacing:0px;word-spacing:0px;fill:#000000;fill-opacity:1;stroke:none;stroke-width:0.26458332"
       d="m -302.38451,-52.647878 h 2.92807 q 4.83303,0.59972 6.985,5.397499 0.49387,1.340554 0.35276,3.210277 0.14111,4.586111 -4.69193,12.876387 6.77333,4.445 8.5725,8.925279 0.88193,2.504722 0.88193,4.868333 0,5.820833 -4.86833,11.5005549 h 0.0706 q 3.9511,-0.7408333 7.23193,-3.7041666 2.3636,-2.5752773 3.175,-5.8913883 l 0.4939,-2.151945 0.21166,-0.740833 0.17638,-0.352778 q 0.49389,1.834445 0.35279,2.681111 -1.02306,5.256389 -3.52779,7.9374999 -3.10444,2.9633333 -5.15054,3.4572221 -3.4925,1.2699999 -5.7503,1.2699999 -3.52777,2.92805543 -9.73666,4.12749983 -2.01084,0.28222217 -3.31611,0.28222217 h -1.16416 q -11.32417,0 -17.99167,-14.0052769 -0.28223,-0.776111 -0.28223,-1.234722 v -0.3175 q 0,-0.917222 1.9403,-3.351389 h 0.42333 q 1.2347,1.093611 3.66887,3.739444 5.7503,3.986389 6.56167,3.986389 8.53723,-10.442222 12.73529,-17.109722 1.4111,-1.940277 1.4111,-2.257777 -8.78416,-6.738054 -8.78416,-14.005277 0,-4.1275 3.13973,-7.231943 1.83443,-1.552224 3.9511,-1.905 z m -4.5861,7.231943 v 0.49389 q 0,4.374443 4.30387,9.278053 2.0814,1.905 3.81,2.963334 h 0.0706 q 4.1275,-7.267221 4.1275,-11.218333 v -0.811388 q 0,-3.986389 -3.73943,-5.785556 -1.23473,-0.599723 -2.75167,-0.599723 h -0.35279 q -3.70417,0 -5.22111,4.056946 -0.24693,0.881944 -0.24693,1.622777 z m 8.04333,17.42722 q -3.77473,6.173612 -14.42863,18.5913893 9.7014,3.9511109 17.8153,3.9511109 h 0.0705 q 5.53863,-4.6566662 5.53863,-10.0894442 0,-6.526388 -8.04334,-11.782776 -0.56446,-0.564446 -0.9525,-0.67028 z m -24.65916,15.628056 q 1.65803,2.998611 5.15053,6.4205553 h 0.0706 l 1.7639,-2.0813887 q -2.82224,-1.27 -6.985,-4.3391666 z m 8.46666,5.2211109 -1.94029,2.2225 q 4.40973,3.3161108 10.54806,3.3161108 4.16277,0 7.86694,-1.6933331 v -0.070556 q -3.06917,0 -10.97137,-1.8344443 -2.32834,-0.7408333 -5.50334,-2.0108333 z" />
    <path
       inkscape:connector-curvature="0"
       id="path5335"
       style="font-style:normal;font-variant:normal;font-weight:normal;font-stretch:normal;font-size:medium;line-height:1.25;font-family:'5th Grade Cursive';-inkscape-font-specification:'5th Grade Cursive';letter-spacing:0px;word-spacing:0px;fill:#000000;fill-opacity:1;stroke:none;stroke-width:0.26458332"
       d="m -280.72892,-23.755381 q 0,-0.246944 0.0706,-0.458611 0,-0.07055 0,-0.07055 l 0.0353,-0.07056 q 0,-0.07055 0.0353,-0.141111 0.0705,-0.141111 0.21167,-0.282222 0.0353,-0.03528 0.0353,-0.07056 0.0353,-0.03528 0.0706,-0.07056 0.0705,-0.03528 0.1411,-0.105834 0.0353,-0.03528 0.0706,-0.03528 l 0.17637,-0.105834 q 0.14113,-0.07055 0.28223,-0.141111 0.42333,-0.141111 0.7761,-0.07055 0.10583,0 0.21167,0.07055 0.0353,0 0.0706,0.03528 0.0353,0.07056 0.0706,0.105833 v 0.07056 q 0,0.176389 -0.0353,1.023055 v 0.352778 q -0.0353,0.352778 -0.0353,0.740833 0,0.352778 -0.0353,0.776112 v 1.199444 q 0,1.411111 0.0353,2.998611 0,0.176389 0,0.352778 v 0.176389 q 0.0353,0.564444 0.0706,1.058333 0,0.282222 0.0353,0.529166 0,0.176389 0.0353,0.388056 0,0.07056 0,0.176389 0.0353,0.07056 0.0353,0.176389 0,0.07056 0,0.141111 l 0.0353,0.3175 q 0.0353,0.211667 0.0706,0.388055 0.0353,0.423334 0.0705,0.776111 0.0353,0.141112 0.0706,0.3175 0.0706,0.423334 0.10583,0.811389 0.10583,0.458611 0.1764,0.811389 0.10583,0.3175 0.17637,0.564445 0.14113,0.423333 0.35279,0.670277 l 0.0705,0.07056 0.0353,0.03528 q 0.1411,0.105833 0.2822,0.176389 0.14113,0.03528 0.24696,0.03528 h 0.14111 0.1411 q 0.10583,0 0.21166,-0.03528 0.3528,-0.07056 0.635,-0.246945 0.0706,-0.07056 0.10584,-0.07056 0.0353,-0.03528 0.0706,-0.03528 0.0353,-0.03528 0.0706,-0.07056 l 0.0353,-0.03528 q 0.0706,-0.07055 0.17639,-0.141111 0.17637,-0.176389 0.35277,-0.352777 0.0353,-0.07056 0.0706,-0.105834 0.17637,-0.211666 0.35277,-0.458611 0.0353,-0.07056 0.10583,-0.141111 0.0353,-0.07056 0.10583,-0.176389 0.1764,-0.282222 0.3175,-0.564444 0.0353,-0.03528 0.0706,-0.07056 l 0.0705,-0.141111 0.0706,-0.141111 q 0.0353,-0.105833 0.0706,-0.141111 0.0353,-0.105833 0.0705,-0.211667 0.14113,-0.246944 0.24696,-0.493889 l 0.0353,-0.105833 q 0.0706,-0.211667 0.1411,-0.388055 0.0353,-0.105834 0.0353,-0.141112 0.0353,-0.07056 0.0705,-0.141111 0.0706,-0.141111 0.10583,-0.211666 l 0.14113,-0.493889 0.0353,-0.105834 q 0,-0.03528 0,-0.07056 0.0353,-0.03528 0.0706,-0.105833 v -0.03528 q 0.0353,-0.07056 0.0353,-0.176389 l 0.0353,-0.141111 q 0.0353,-0.07056 0.0353,-0.105834 0,-0.03528 0.0353,-0.07056 0,-0.07056 0,-0.105833 0,-0.03528 0.0353,-0.07056 l 0.0706,-0.282222 q 0,-0.03528 0,-0.07056 0.0353,-0.07055 0.0353,-0.105833 0,-0.03528 0,-0.07056 0.0353,-0.03528 0.0353,-0.07055 0,-0.07056 0,-0.105833 l 0.0353,-0.176389 q 0,-0.07056 0,-0.105834 0.0353,-0.03528 0.0353,-0.07055 0.0706,-0.211667 0.0706,-0.388056 0.0353,-0.105833 0.0706,-0.176389 0.0353,-0.176389 0.0353,-0.211666 l 0.0706,-0.03528 0.0353,0.07055 q 0,0.03528 0.0353,0.105834 0,0.03528 0.0353,0.105833 0,0.03528 0,0.07056 0.0705,0.211666 0.1411,0.493889 0,0.07055 0.0353,0.141111 l 0.0706,0.3175 q 0,0.07055 0,0.141111 0,0.07055 0.0353,0.141111 0,0.07055 0,0.141111 0.0353,0.07056 0.0353,0.176389 v 0.07056 q 0,0.246945 0,0.529167 -0.0353,0.246944 -0.0706,0.529167 -0.0353,0.07056 -0.0353,0.141111 -0.49389,2.187222 -1.48166,4.056944 -0.45863,0.8819443 -0.91723,1.5169443 -0.0353,0.035278 -0.0353,0.070556 -0.21167,0.2822221 -0.42334,0.4938887 l -0.0706,0.035278 q -0.0353,0.070555 -0.0706,0.1058333 -0.10583,0.070555 -0.1411,0.1058334 -0.10583,0.070555 -0.21166,0.141111 l -0.0353,0.035278 -0.10584,0.070556 -0.0353,0.035278 q -0.1411,0.070556 -0.3175,0.1411113 l -0.28221,0.1058333 q -0.0353,0 -0.10583,0.035278 -0.0353,0 -0.0706,0 -0.0353,0 -0.0706,0.035278 -0.1411,0.035278 -0.2822,0.035278 -0.28223,0.035278 -0.59973,0.035278 -0.0706,0 -0.14111,0 -0.10583,-0.035278 -0.17639,-0.035278 -0.0353,0 -0.0706,-0.035278 -0.0353,0 -0.0705,0 -0.0706,-0.035278 -0.14113,-0.035278 l -0.0705,-0.035278 q -0.21167,-0.1058333 -0.42334,-0.2116666 -0.0353,-0.035278 -0.10583,-0.070556 -0.1764,-0.1058333 -0.3528,-0.2822223 -0.10583,-0.1058333 -0.24693,-0.2469443 0,-0.035278 -0.0353,-0.070556 -0.10583,-0.1058333 -0.24696,-0.282222 0,-0.035278 -0.0353,-0.070556 -0.0706,-0.070555 -0.1411,-0.1763887 -0.0353,-0.1058333 -0.0706,-0.176389 -0.24693,-0.4938889 -0.42333,-1.1288894 -0.4939,-1.27 -0.74083,-2.081389 -0.24694,-0.811389 -0.56444,-2.398888 -0.3175,-1.622778 -0.1764,-3.316111 0.10584,-1.446389 0.24694,-2.928056 0,-0.246944 0.0353,-0.529166 0.0353,-0.141112 0.0353,-0.246945 0,-0.141111 0.0353,-0.246944 0,-0.388056 0,-0.635 z m 1.97557,-12.841111 q 0.3175,-0.07055 0.56443,0 0.24696,0.07056 0.24696,0.17639 -0.0353,0.45861 0,0.917221 0.0353,0.423333 -0.0353,0.917223 -0.10584,0.49389 -0.49387,0.77611 -0.3528,0.246946 -0.77613,0.35278 -0.38804,0.105833 -0.70554,0.07055 -0.3175,-0.07055 -0.3175,-0.246943 0,-0.45861 -0.0353,-0.917223 0,-0.458611 0.0706,-0.881944 0.0706,-0.59972 0.56443,-0.846667 0.52917,-0.246943 0.91724,-0.3175 z" />
    <path
       inkscape:connector-curvature="0"
       id="path5337"
       style="font-style:normal;font-variant:normal;font-weight:normal;font-stretch:normal;font-size:medium;line-height:1.25;font-family:'5th Grade Cursive';-inkscape-font-specification:'5th Grade Cursive';letter-spacing:0px;word-spacing:0px;fill:#000000;fill-opacity:1;stroke:none;stroke-width:0.26458332"
       d="m -260.34497,-17.087881 q 0.0706,0.388056 0.10584,0.917222 0.0353,0.529167 -0.10584,1.164167 -0.56444,2.116666 -1.34055,3.668889 -0.74084,1.5522216 -1.44639,2.434166 -0.56445,0.5644446 -1.41111,0.9172223 -0.81139,0.3175 -1.69335,0.176389 -1.62277,-0.1058334 -2.8222,-1.305278 -0.8114,-0.8113887 -1.4464,-2.2577773 -0.59973,-1.481667 -1.02306,-3.351389 -0.45861,-1.869722 -0.70554,-3.951111 -0.28223,-2.116666 -0.42334,-4.1275 -0.14112,-2.046111 -0.21166,-3.81 -0.0706,-1.799167 -0.0706,-2.998611 -0.0353,-1.5875 0,-3.457223 0,-1.905 0.1764,-4.162777 0.1411,-2.293053 0.52917,-4.974166 0.35277,-2.68111 1.02304,-5.820833 0.42333,-1.693334 1.12889,-2.786944 0.74084,-1.12889 1.1289,-1.44639 0.84667,-0.635 1.5875,-0.211666 0.74083,0.388056 1.23471,1.481666 1.16416,3.386667 1.41112,7.231946 0.28222,3.845277 -0.45862,8.572498 -0.35277,1.27 -0.56444,2.328333 -0.21167,1.058333 -0.4586,2.116667 -0.24696,1.058333 -0.59973,2.293056 -0.3175,1.199444 -0.84667,2.786945 -0.28223,0.670277 -0.59973,1.622777 -0.28221,0.9525 -0.635,1.975556 -0.17637,0.458611 -0.42333,1.199444 -0.21167,0.705556 -0.42334,1.375833 -0.24693,0.776111 -0.52916,1.658056 0.24696,1.128889 0.45862,2.2225 0.24694,1.058333 0.52917,2.010833 0.28221,0.9525 0.74083,1.799167 0.45861,0.846666 1.16417,1.516944 0.28221,0.282222 0.635,0.4233333 0.35277,0.1058333 0.70554,0.141111 0.35279,0.035278 0.635,0.035278 0.3175,-0.035278 0.4939,-0.1058334 0.635,-0.141111 1.16417,-0.6702779 0.52916,-0.529167 0.9525,-1.27 0.42333,-0.776111 0.74083,-1.622778 0.35278,-0.881944 0.635,-1.763888 0.28222,-0.987778 0.38806,-1.658056 0.14111,-0.670278 0.21166,-0.9525 0.0706,-0.3175 0.14111,-0.176389 0.10584,0.141111 0.3175,0.811389 z m -11.04194,-13.687777 q 0.0353,1.446389 0.10584,2.99861 0.0705,1.552223 0.17637,3.03389 0.10583,1.446389 0.24696,2.716388 0.1411,1.27 0.28221,2.116667 0.0353,-0.105833 0.10583,-0.388056 0.10583,-0.282222 0.21167,-0.599722 0.10583,-0.352777 0.17639,-0.670277 0.10584,-0.352778 0.1764,-0.493889 0.56444,-1.693334 0.88194,-2.892778 0.35277,-1.234722 0.59973,-2.434167 0.42333,-1.41111 0.67027,-2.504723 0.24693,-1.128887 0.38806,-2.116666 0.17637,-0.987777 0.24694,-2.010834 0.10583,-1.023053 0.17639,-2.257777 0.3175,-3.174999 0.3175,-5.291666 0,-2.151944 -0.21166,-3.63361 -0.1764,-1.481667 -0.4939,-2.434167 -0.28223,-0.987777 -0.4939,-1.869723 -0.2822,-0.91722 -0.5997,-1.058333 -0.28223,-0.141111 -0.56446,0.211666 -0.28221,0.3175 -0.56444,1.023057 -0.24694,0.670277 -0.4586,1.41111 -0.1764,0.740833 -0.3175,1.411113 -0.14113,0.635 -0.1764,0.91722 -0.28223,2.25778 -0.4939,4.233334 -0.17637,1.940279 -0.2822,3.704166 -0.10584,1.76389 -0.14113,3.457223 -0.0353,1.693334 0.0353,3.421944 z" />
    <path
       inkscape:connector-curvature="0"
       id="path5339"
       style="font-style:normal;font-variant:normal;font-weight:normal;font-stretch:normal;font-size:medium;line-height:1.25;font-family:'5th Grade Cursive';-inkscape-font-specification:'5th Grade Cursive';letter-spacing:0px;word-spacing:0px;fill:#000000;fill-opacity:1;stroke:none;stroke-width:0.26458332"
       d="m -238.00147,-15.465103 q -0.17639,0.458611 -0.70555,0.670278 -0.52917,0.211666 -1.30528,0.141111 -0.91722,-0.141111 -1.37583,-0.282223 -0.45862,-0.141111 -1.19945,-0.458611 -0.52917,1.728611 -1.27,2.892778 -0.70555,1.128889 -1.48167,1.975555 -0.74083,0.846667 -1.72861,1.5522226 -0.70555,0.4938887 -1.55222,0.8819443 -0.84667,0.3880557 -1.86972,0.2822224 -0.67028,-0.1058334 -1.41111,-0.5644447 -0.74084,-0.458611 -1.76389,-1.375833 -1.12889,-1.1994446 -1.69333,-2.6105556 -0.52917,-1.411111 -0.70556,-3.033889 v -0.07055 q -0.0706,-0.529167 -0.10583,-1.234722 0,-0.740834 -0.0353,-1.446389 -0.0353,-0.740833 -0.0706,-1.375833 0,-0.670278 -0.0353,-1.023056 -0.0353,-0.352778 -0.0706,-0.776111 -0.0353,-0.423333 -0.10583,-0.776111 -0.0706,-0.388056 -0.17639,-0.670278 -0.10583,-0.3175 -0.24695,-0.423333 -0.45861,-0.3175 -0.9525,0.388055 -0.49388,0.670278 -1.12888,2.398889 -0.49389,1.5875 -0.70556,2.363611 -0.17639,0.776111 -0.42333,1.975556 -0.17639,0.881944 -0.59973,0.564444 -0.45861,-0.3175 -0.10583,-2.010833 0.0706,-0.493889 0.24695,-1.305278 0.24694,-0.9525 0.49388,-1.940278 0.28223,-0.987777 0.70556,-1.905 0.42333,-0.952499 0.84667,-1.516944 0.45861,-0.564444 1.16416,-1.023055 0.9525,-0.458611 1.79917,0.03528 0.88194,0.458611 1.44639,1.658056 0.21166,0.423333 0.28222,1.023055 0.10583,0.564445 0.14111,1.234723 0.0353,0.634999 0,1.305277 0,0.670278 -0.0353,1.305278 v 0.07056 q -0.0353,0.952499 -0.0706,2.010833 0,1.023055 0.52916,2.575277 0.3175,0.917223 0.77612,1.693334 0.45861,0.776111 0.9525,1.375833 0.49388,0.564444 0.9525,0.917222 0.49388,0.3175 0.88194,0.3175 0.84667,0 1.5875,-0.352778 0.77611,-0.388055 1.51694,-1.023055 1.05834,-0.987778 1.79917,-2.257778 0.74083,-1.27 0.91722,-2.8575 -1.05833,-0.529166 -2.11666,-1.305277 -1.05834,-0.776112 -1.94028,-1.658056 -0.84667,-0.917222 -1.37583,-1.834444 -0.52917,-0.9525 -0.49389,-1.869722 -0.0353,-0.211667 0.0705,-0.599723 0.14111,-0.423333 0.42334,-0.811388 0.28222,-0.423334 0.67027,-0.740834 0.42334,-0.3175 0.98778,-0.352778 0.77611,-0.03528 1.62278,0.388056 0.88194,0.388056 1.65805,1.164167 0.77612,0.740833 1.27,1.905 0.67028,1.481666 0.81139,2.822222 0.14111,1.340555 -0.0705,2.54 0.635,0.211666 1.23472,0.211666 0.59972,0 1.05833,-0.176389 0.45861,-0.176389 0.84667,-0.423333 0.38806,-0.282222 0.70556,-0.917222 0.17638,-0.564445 0.28222,-0.388056 0.10583,0.176389 0.3175,1.058334 0.24694,0.846666 -0.0706,1.693333 z m -8.60778,-3.598333 q 0.45862,0.493889 1.16417,0.9525 0.74083,0.458611 1.62278,0.846666 -0.0706,-1.728611 -0.88195,-3.316111 -0.77611,-1.5875 -2.01083,-2.363611 -0.49389,-0.282222 -0.81139,-0.352777 -0.3175,-0.07056 -0.59972,0 -0.35278,0.105833 -0.45861,0.529166 -0.10583,0.388056 0.0353,0.987778 0.17639,0.564444 0.635,1.27 0.45861,0.705555 1.30527,1.446389 z" />
    <path
       inkscape:connector-curvature="0"
       id="path5341"
       style="font-style:normal;font-variant:normal;font-weight:normal;font-stretch:normal;font-size:medium;line-height:1.25;font-family:'5th Grade Cursive';-inkscape-font-specification:'5th Grade Cursive';letter-spacing:0px;word-spacing:0px;fill:#000000;fill-opacity:1;stroke:none;stroke-width:0.26458332"
       d="m -228.30669,-21.568158 q -0.9525,0.811388 -1.94028,1.411111 -0.98778,0.564444 -2.11667,1.093611 -1.09361,0.529166 -2.32833,1.164166 -1.19944,0.599722 -2.54,1.446389 0.10583,1.058333 0.45861,2.010833 0.35278,0.917222 0.88195,1.658056 0.52916,0.740833 1.19944,1.340555 0.70556,0.599722 1.41111,0.987778 1.27,0.7055556 2.61056,0.6702776 1.34055,-0.035278 2.89277,-0.4233336 1.55223,-0.388055 2.92806,-1.622777 1.41111,-1.27 2.25778,-3.280833 0.35277,-1.27 0.49389,-2.010834 0.14111,-0.740833 0.28222,-1.058333 0.10583,-0.211667 0.24694,1.164167 0.10584,0.388055 0.14111,0.846666 0.0706,0.458611 -0.14111,1.199445 -0.17639,0.635 -0.42333,1.340555 -0.21167,0.705556 -0.91722,1.728611 -0.67028,0.987778 -1.51695,1.728611 -0.84666,0.7408336 -1.76389,1.27 -0.84666,0.493889 -2.04611,0.7761113 -1.19944,0.282222 -2.50472,0.3527776 -1.30528,0.070556 -2.61055,-0.3175 -1.30528,-0.3880556 -2.39889,-1.234722 -2.18723,-1.7638889 -2.78695,-4.3391669 -0.59972,-2.610555 0.45861,-5.820833 0.17639,-0.458611 0.35278,-0.846666 0.21167,-0.388056 0.42333,-0.776111 0.45862,-0.776111 1.12889,-1.516945 0.67028,-0.740833 1.44639,-1.305277 0.77611,-0.564445 1.51695,-0.917223 0.77611,-0.352777 1.37583,-0.458611 0.59972,-0.07055 1.27,-0.07055 0.67028,-0.03528 1.27,0.07055 0.59972,0.105834 1.09361,0.388056 0.49389,0.282222 0.74083,0.846666 0.28223,0.740834 0.0353,1.340556 -0.21167,0.564444 -0.88194,1.164167 z m -1.51695,-0.670278 q 0.24695,-0.282222 0.21167,-0.599722 0,-0.3175 -0.24694,-0.564445 -0.24695,-0.282222 -0.67028,-0.423333 -0.38806,-0.176389 -0.88195,-0.141111 -1.76389,0.141111 -3.175,1.128889 -1.41111,0.9525 -2.15194,2.892777 -0.10583,0.282222 -0.21167,0.670278 -0.10583,0.352778 -0.17639,0.740833 -0.10583,0.423334 -0.14111,0.881945 2.29306,-1.340556 4.23334,-2.398889 1.97555,-1.093611 3.21027,-2.187222 z" />
    <path
       inkscape:connector-curvature="0"
       id="path5343"
       style="font-style:normal;font-variant:normal;font-weight:normal;font-stretch:normal;font-size:medium;line-height:1.25;font-family:'5th Grade Cursive';-inkscape-font-specification:'5th Grade Cursive';letter-spacing:0px;word-spacing:0px;fill:#000000;fill-opacity:1;stroke:none;stroke-width:0.26458332"
       d="m -207.04136,-17.052603 q 0.10583,0.388055 0.14111,0.705555 0.0705,0.3175 -0.14111,1.375834 -0.67028,2.716388 -1.69334,4.444999 -1.02305,1.7286113 -1.905,2.2930559 -0.56444,0.3175 -1.23472,0.4233334 -0.635,0.1058333 -1.27,-0.1058334 -0.635,-0.2116666 -1.19944,-0.8113889 -0.52917,-0.5997221 -0.91723,-1.728611 -0.42333,-1.128889 -0.70555,-2.363611 -0.28222,-1.234722 -0.45861,-2.398889 -0.0353,-0.423333 -0.0706,-1.199444 0,-0.811389 -0.0353,-1.622778 0,-0.811389 0,-1.552222 0.0353,-0.776111 0.0353,-1.164167 0.0353,-0.282222 0.0353,-0.493888 v -0.388056 q -0.67028,0.705556 -1.83444,0.564444 -1.12889,-0.176388 -2.11667,-1.128888 -0.17639,1.622777 -0.42333,3.174999 -0.21167,1.552223 -0.56445,3.280834 -0.0705,0.423333 -0.28222,0.635 -0.21167,0.211666 -0.42333,0.3175 -0.28223,0.07055 -0.42334,0.105833 -0.17639,0 -0.14111,-0.07056 0.21167,-0.917222 0.35278,-1.516944 0.14111,-0.635 0.28222,-1.305278 0.17639,-1.093611 0.24695,-2.2225 0.0706,-1.128888 0.0706,-2.046111 0,-1.093611 -0.10583,-2.116666 -0.0353,-0.635 0.28222,-0.9525 0.28222,-0.3175 0.635,-0.423334 0.38806,-0.105833 0.70556,-0.03528 0.3175,0.07055 0.38805,0.176389 0.10583,0.282222 0.0706,0.458611 0,0.176389 0.0705,0.529166 0.0706,0.388056 0.74084,0.881945 0.67027,0.493889 1.37583,0.776111 0.56444,0.211666 0.81139,0 0.28222,-0.211667 0.45861,-0.529167 0.21167,-0.388055 0.56444,-0.599722 0.35278,-0.211667 0.70556,-0.246944 0.35278,-0.07056 0.635,0 0.28222,0.03528 0.28222,0.176388 0,0.282223 -0.0353,1.340556 -0.0353,1.023055 -0.0705,2.469444 0,1.411111 0.0353,3.069167 0.0705,1.622777 0.24694,3.069166 0.28222,2.116667 0.635,3.033889 0.38805,0.9172223 1.12889,0.9172223 0.67028,0 1.27,-0.4938893 0.635,-0.493889 1.16416,-1.234722 0.52917,-0.776111 0.91723,-1.693333 0.42333,-0.9525 0.70555,-1.869722 0.28222,-0.917222 0.42334,-1.5875 0.14111,-0.705556 0.21166,-0.987778 0.0706,-0.3175 0.14111,-0.176389 0.0706,0.141111 0.28223,0.846667 z" />
    <path
       inkscape:connector-curvature="0"
       id="path5345"
       style="font-style:normal;font-variant:normal;font-weight:normal;font-stretch:normal;font-size:medium;line-height:1.25;font-family:'5th Grade Cursive';-inkscape-font-specification:'5th Grade Cursive';letter-spacing:0px;word-spacing:0px;fill:#000000;fill-opacity:1;stroke:none;stroke-width:0.26458332"
       d="m -195.64278,-25.413436 q 0.49389,0 0.88195,0.105833 0.38805,0.105834 0.77611,0.3175 1.48166,0.811389 2.25778,1.905 0.77611,1.058333 1.19944,2.257778 0.59972,-1.164167 1.34056,-2.116667 0.77611,-0.9525 1.72861,-1.552222 0.9525,-0.635 2.11666,-0.811389 1.16417,-0.176389 2.61056,0.211667 1.02305,0.352778 1.69333,1.058333 0.70556,0.670278 1.12889,1.516945 0.45861,0.846666 0.70556,1.799166 0.24694,0.9525 0.38805,1.869722 0.21167,1.128889 0.24695,2.645834 0.0705,1.516944 0.21166,2.857499 0.0353,0.352778 0.10584,0.9525 0.10583,0.564445 0.28222,1.128889 0.17639,0.564445 0.49389,0.987778 0.3175,0.4233333 0.81139,0.4586109 0.67027,0 1.27,-0.4938889 0.635,-0.493889 1.16416,-1.234722 0.52917,-0.776111 0.91722,-1.693333 0.42334,-0.9525 0.70556,-1.834445 0.3175,-0.9525 0.42333,-1.622777 0.14111,-0.670278 0.21167,-0.9525 0.0706,-0.3175 0.14111,-0.176389 0.0706,0.141111 0.28222,0.811389 0.10584,0.423333 0.14111,0.987777 0.0353,0.529167 -0.14111,1.058334 -0.67027,2.716388 -1.65805,4.444999 -0.98778,1.7286113 -1.905,2.3283336 -0.52917,0.2822223 -1.09361,0.3880557 -0.52917,0.1058333 -1.09361,0 -0.52917,-0.1411113 -1.05834,-0.5291667 -0.52916,-0.4233333 -0.9525,-1.1641667 -0.81139,-1.3052779 -0.98777,-2.8222219 -0.17639,-1.552222 -0.35278,-3.139722 -0.0706,-1.058333 -0.14111,-2.046111 -0.0353,-0.987778 -0.21167,-2.010833 -0.35278,-1.5875 -1.09361,-2.681111 -0.74083,-1.128889 -1.97556,-1.411111 -0.84666,-0.176389 -1.55222,-0.03528 -0.67028,0.105833 -1.19944,0.388055 -0.52917,0.246945 -0.91723,0.599722 -0.35277,0.352778 -0.56444,0.635 -0.74083,1.058334 -1.12889,2.151945 -0.38805,1.093611 -0.56444,2.081389 -0.17639,0.9525 -0.21167,1.728611 0,0.740833 -0.0353,1.128888 -0.0705,0.740834 -0.14111,1.799167 -0.0353,1.023056 -0.10583,2.010833 -0.0706,0.9525 -0.10584,1.7286113 -0.0353,0.7408333 -0.0353,0.8819443 0,0.2116667 -0.3175,0.3880557 -0.28223,0.1763887 -0.635,0.282222 -0.35278,0.070556 -0.67028,0.070556 -0.28222,-0.035278 -0.28222,-0.2469443 0,-1.3405556 0.0705,-2.434167 0.0706,-1.128889 0.14111,-2.151944 0.0706,-1.058334 0.14111,-2.046111 0.10584,-1.023056 0.17639,-2.187222 -0.0353,-0.635 -0.0705,-1.234723 0,-0.635 -0.17639,-1.446388 -0.3175,-1.5875 -1.05833,-2.681111 -0.74084,-1.128889 -1.86973,-1.411111 -0.91722,-0.176389 -1.62277,-0.03528 -0.70556,0.141111 -1.23473,0.423333 -0.52916,0.282222 -0.91722,0.670278 -0.35278,0.352778 -0.56444,0.599722 -0.74084,1.058333 -1.12889,2.151944 -0.38806,1.093611 -0.56445,2.046111 -0.17638,0.9525 -0.21166,1.693334 -0.0353,0.740833 -0.0353,1.128888 -0.0353,0.740834 -0.10583,1.799167 -0.0353,1.023056 -0.0706,2.010833 -0.0353,0.9525 -0.0706,1.7286117 -0.0353,0.7408333 -0.0353,0.8819443 0,0.2116667 -0.3175,0.3880557 -0.3175,0.1763887 -0.74084,0.282222 -0.38805,0.070556 -0.70555,0.070556 -0.3175,-0.035278 -0.3175,-0.2469443 0,-1.9402777 0.14111,-3.8452774 0.17639,-1.940278 0.28222,-3.951111 0.0353,-2.151944 0.10584,-3.4925 0.0705,-1.375833 -0.56445,-1.869722 -0.56444,-0.423333 -1.02305,-0.105833 -0.45862,0.282222 -1.16417,2.187222 -0.28222,1.023055 -0.49389,1.799166 -0.21167,0.740834 -0.35278,1.658056 -0.14111,0.246944 -0.3175,0 -0.17639,-0.282222 -0.21166,-0.564444 -0.0706,-0.282223 -0.10584,-0.564445 -0.0353,-0.3175 0.0706,-0.987778 l 0.17639,-0.670277 q 0.38805,-1.199445 0.70555,-1.975556 0.3175,-0.811389 0.70556,-1.481666 0.38805,-0.670278 0.84666,-1.164167 0.45862,-0.529167 0.9525,-0.705556 1.02306,-0.388055 1.86973,0.07056 0.84666,0.458611 1.37583,1.658055 0.9525,-1.693333 2.36361,-2.539999 1.41111,-0.846667 2.82222,-0.846667 z" />
    <path
       inkscape:connector-curvature="0"
       id="path5347"
       style="font-style:normal;font-variant:normal;font-weight:normal;font-stretch:normal;font-size:medium;line-height:1.25;font-family:'5th Grade Cursive';-inkscape-font-specification:'5th Grade Cursive';letter-spacing:0px;word-spacing:0px;fill:#000000;fill-opacity:1;stroke:none;stroke-width:0.26458332"
       d="m -152.07967,-17.228992 q 0.17638,0.352778 0.17638,1.093611 0.0353,0.705556 -0.14111,1.234722 -0.70555,2.751667 -1.65805,4.445 -0.91722,1.6580553 -1.94028,2.2930553 -0.59972,0.2822223 -1.27,0.3880556 -0.67028,0.070556 -1.30528,-0.141111 -0.635,-0.2116666 -1.19944,-0.8113889 -0.52917,-0.5997221 -0.91722,-1.728611 -0.28223,-0.529167 -0.38806,-1.128889 -0.0706,-0.635 -0.17639,-1.305278 -0.42333,1.411112 -1.02305,2.2225 -0.56445,0.7761113 -1.09362,1.4463893 -0.74083,0.917222 -1.905,1.2699997 -1.12888,0.3175 -2.32833,0.070556 -1.19944,-0.2469443 -2.29305,-1.0583333 -1.05834,-0.8113887 -1.69334,-2.2225007 -0.70555,-1.446388 -0.88194,-2.857499 -0.21167,-1.446389 -0.0706,-2.716389 0.14111,-1.305278 0.52917,-2.398889 0.35278,-1.128889 0.77611,-2.010833 0.52917,-0.811389 1.23472,-1.552222 0.70556,-0.740834 1.44639,-1.305278 0.74083,-0.599722 1.51695,-0.9525 0.77611,-0.388056 1.41111,-0.458611 0.52916,-0.03528 1.23472,0.105833 0.74083,0.105834 1.44639,0.3175 0.70555,0.211667 1.27,0.493889 0.59972,0.246945 0.81139,0.458611 0.49389,-0.176389 0.91722,-0.105833 0.42333,0.07056 0.42333,0.246944 0,0.282223 -0.0353,1.340556 -0.0353,1.058333 -0.0705,2.504722 0,1.446389 0.0353,3.104444 0.0705,1.622778 0.24694,3.069167 0.24695,2.187222 0.635,3.104444 0.42333,0.9172227 1.09361,0.9172227 0.74084,0 1.34056,-0.4938897 0.635,-0.493889 1.16416,-1.234722 0.52917,-0.740833 0.91723,-1.658055 0.42333,-0.9525 0.70555,-1.799167 0.28222,-1.023055 0.45861,-1.728611 0.17639,-0.740833 0.21167,-1.023055 0.0706,-0.3175 0.14111,-0.176389 0.0706,0.105833 0.24695,0.740833 z m -14.00528,7.5141663 q 0.88194,0.035278 1.62278,-0.4938893 0.77611,-0.564444 1.37583,-1.411111 0.59972,-0.846666 1.02305,-1.905 0.45862,-1.058333 0.74084,-2.081388 -0.0706,-0.493889 -0.10584,-1.234722 -0.0353,-0.776112 -0.0353,-1.552223 0,-0.776111 0.0353,-1.446388 0.0353,-0.670278 0.0706,-1.058334 0.0353,-0.423333 0.0353,-0.705555 v -0.529167 q -1.27,-0.811389 -2.61056,-1.128889 -1.34055,-0.352777 -2.57528,-0.07055 -1.23472,0.282222 -2.25777,1.128889 -0.98778,0.811388 -1.55222,2.257777 -0.45862,1.481667 -0.35278,3.280833 0.14111,1.763889 0.74083,3.316111 0.59972,1.552223 1.5875,2.575278 0.98778,1.0230556 2.25778,1.0583333 z" />
    <path
       inkscape:connector-curvature="0"
       id="path5349"
       style="font-style:normal;font-variant:normal;font-weight:normal;font-stretch:normal;font-size:medium;line-height:1.25;font-family:'5th Grade Cursive';-inkscape-font-specification:'5th Grade Cursive';letter-spacing:0px;word-spacing:0px;fill:#000000;fill-opacity:1;stroke:none;stroke-width:0.26458332"
       d="m -140.83544,-25.413436 q 0.56444,0 1.05833,0.07056 0.49389,0.07056 0.77611,0.246945 1.44639,0.740833 2.25778,1.834444 0.81139,1.058334 1.30528,2.257778 0.49389,1.869722 0.52916,3.704166 0.0706,1.834445 0.17639,3.880556 0,0.564444 0.0353,1.164166 0.0706,0.599723 0.24694,1.093611 0.17639,0.493889 0.52917,0.846667 0.38806,0.3175 1.02306,0.4233333 0.635,0.1058333 1.23472,-0.3527773 0.635,-0.493889 1.16417,-1.305278 0.56444,-0.811389 0.9525,-1.799167 0.42333,-0.987777 0.70555,-1.905 0.24695,-0.917222 0.38806,-1.552222 0.14111,-0.635 0.17639,-0.917222 0.0705,-0.3175 0.10583,-0.211667 0.0705,0.105834 0.3175,0.740834 0.14111,0.458611 0.14111,1.058333 0.0353,0.564444 -0.10583,1.128889 -0.59973,2.716389 -1.62278,4.445 -1.02306,1.7286106 -1.97556,2.293055 -0.81139,0.4586113 -1.5875,0.3880556 -0.77611,-0.070556 -1.41111,-0.458611 -0.59972,-0.4233333 -1.05833,-1.0230556 -0.45861,-0.635 -0.59972,-1.27 -0.49389,-2.046111 -0.67028,-4.374444 -0.14111,-2.363611 -0.59972,-4.656667 -0.38806,-1.552222 -1.05834,-2.681111 -0.67027,-1.128888 -1.905,-1.411111 -0.84666,-0.211666 -1.51694,-0.07055 -0.635,0.141111 -1.16417,0.458611 -0.49389,0.282222 -0.84666,0.705555 -0.35278,0.388056 -0.56445,0.705556 -0.70555,1.023056 -1.12889,2.116667 -0.38805,1.058333 -0.59972,2.010833 -0.17639,0.9525 -0.24694,1.728611 -0.0353,0.740833 -0.0706,1.164166 -0.0705,0.740834 -0.14111,1.763889 -0.0353,0.987778 -0.0706,1.975556 -0.0353,0.987777 -0.0705,1.7286106 -0.0353,0.7408334 -0.0353,0.8819444 0,0.2822223 -0.3175,0.4586113 -0.3175,0.1763887 -0.70555,0.282222 -0.35278,0.070556 -0.67028,0.070556 -0.3175,-0.035278 -0.3175,-0.2116666 0,-1.905 0.10583,-3.8099997 0.14111,-1.940278 0.17639,-4.056945 0.0353,-2.151944 0.10583,-3.563055 0.0706,-1.411111 -0.49389,-1.905 -0.45861,-0.352778 -0.84666,0 -0.38806,0.352778 -0.635,0.881944 -0.24695,0.529167 -0.56445,1.199445 -0.28222,0.670278 -0.59972,1.799166 -0.28222,1.093611 -0.38805,1.658056 -0.10584,0.564444 -0.28223,0.211666 -0.17639,-0.388055 -0.24694,-0.705555 -0.10583,-0.352778 -0.10583,-0.529167 -0.0353,-0.176389 0.0705,-0.9525 l 0.17639,-0.776111 q 0.28222,-1.023055 0.59972,-1.869722 0.3175,-0.846666 0.70556,-1.516944 0.42333,-0.670278 0.88194,-1.164167 0.49389,-0.529166 1.02306,-0.705555 0.9525,-0.493889 1.79916,0 0.88195,0.493889 1.44639,1.728611 0.42334,-0.846667 1.02306,-1.481667 0.635,-0.635 1.30528,-1.023055 0.70555,-0.423334 1.37583,-0.635 0.70555,-0.211667 1.30528,-0.211667 z" />
    <flowRoot
       xml:space="preserve"
       id="flowRoot5306"
       style="fill:black;fill-opacity:1;stroke:none;font-family:sans-serif;font-style:normal;font-weight:normal;font-size:40px;line-height:1.25;letter-spacing:0px;word-spacing:0px"><flowRegion
         id="flowRegion5308"><rect
           id="rect5310"
           width="1514.2858"
           height="554.28571"
           x="-1842.8572"
           y="-386.05176" /></flowRegion><flowPara
         id="flowPara5312"></flowPara></flowRoot>    <g
       style="font-style:normal;font-weight:normal;font-size:40px;line-height:1.25;font-family:sans-serif;letter-spacing:0px;word-spacing:0px;fill:#000000;fill-opacity:1;stroke:none"
       id="flowRoot5314" />
  </g>
</svg>
