<?xml version="1.0" encoding="UTF-8" standalone="no"?>
<!-- Created with Inkscape (http://www.inkscape.org/) -->

<svg
   xmlns:dc="http://purl.org/dc/elements/1.1/"
   xmlns:cc="http://creativecommons.org/ns#"
   xmlns:rdf="http://www.w3.org/1999/02/22-rdf-syntax-ns#"
   xmlns:svg="http://www.w3.org/2000/svg"
   xmlns="http://www.w3.org/2000/svg"
   xmlns:sodipodi="http://sodipodi.sourceforge.net/DTD/sodipodi-0.dtd"
   xmlns:inkscape="http://www.inkscape.org/namespaces/inkscape"
   version="1.1"
   id="svg123"
   width="669"
   height="166"
   viewBox="0 0 669 166"
   sodipodi:docname="myname34b.svg"
   inkscape:version="0.92.1 r15371">
  <metadata
     id="metadata129">
    <rdf:RDF>
      <cc:Work
         rdf:about="">
        <dc:format>image/svg+xml</dc:format>
        <dc:type
           rdf:resource="http://purl.org/dc/dcmitype/StillImage" />
        <dc:title></dc:title>
      </cc:Work>
    </rdf:RDF>
  </metadata>
  <defs
     id="defs127" />
  <sodipodi:namedview
     pagecolor="#ffffff"
     bordercolor="#666666"
     borderopacity="1"
     objecttolerance="10"
     gridtolerance="10"
     guidetolerance="10"
     inkscape:pageopacity="0"
     inkscape:pageshadow="2"
     inkscape:window-width="1920"
     inkscape:window-height="1017"
     id="namedview125"
     showgrid="false"
     inkscape:zoom="0.43348281"
     inkscape:cx="-124.57241"
     inkscape:cy="83"
     inkscape:window-x="-8"
     inkscape:window-y="-8"
     inkscape:window-maximized="1"
     inkscape:current-layer="svg123" />
  <g
     aria-label="Jacob Silverman"
     style="font-style:normal;font-weight:normal;font-size:40px;line-height:1.25;font-family:sans-serif;letter-spacing:0px;word-spacing:0px;fill:#000000;fill-opacity:1;stroke:none"
     id="flowRoot3803"
     transform="translate(1453.3448,415.24138)">
    <path
       d="m -1297.1641,-351.43555 h 3.9453 v 27.12891 q 0,5.27344 -2.0117,7.65625 -1.9922,2.38281 -6.4258,2.38281 h -1.5039 v -3.32031 h 1.2305 q 2.6172,0 3.6914,-1.46484 1.0742,-1.46485 1.0742,-5.25391 z"
       id="path3811"
       inkscape:connector-curvature="0" />
    <path
       d="m -1275.582,-333.27148 q -4.3555,0 -6.0352,0.99609 -1.6797,0.99609 -1.6797,3.39844 0,1.91406 1.25,3.04687 1.2696,1.11328 3.4375,1.11328 2.9883,0 4.7852,-2.10937 1.8164,-2.12891 1.8164,-5.64453 v -0.80078 z m 7.1679,-1.48438 v 12.48047 h -3.5937 v -3.32031 q -1.2305,1.99218 -3.0664,2.94922 -1.836,0.9375 -4.4922,0.9375 -3.3594,0 -5.3516,-1.875 -1.9726,-1.89454 -1.9726,-5.0586 0,-3.6914 2.4609,-5.5664 2.4805,-1.875 7.3828,-1.875 h 5.0391 v -0.35157 q 0,-2.48047 -1.6406,-3.82812 -1.6211,-1.36719 -4.5704,-1.36719 -1.875,0 -3.6523,0.44922 -1.7773,0.44922 -3.418,1.34766 v -3.32032 q 1.9727,-0.76172 3.8282,-1.13281 1.8554,-0.39062 3.6132,-0.39062 4.7461,0 7.0899,2.46093 2.3437,2.46094 2.3437,7.46094 z"
       id="path3813"
       inkscape:connector-curvature="0" />
    <path
       d="m -1245.25,-343.31055 v 3.35938 q -1.5234,-0.83985 -3.0664,-1.25 -1.5234,-0.42969 -3.0859,-0.42969 -3.4961,0 -5.4297,2.22656 -1.9336,2.20703 -1.9336,6.21094 0,4.00391 1.9336,6.23047 1.9336,2.20703 5.4297,2.20703 1.5625,0 3.0859,-0.41016 1.543,-0.42968 3.0664,-1.26953 v 3.32032 q -1.5039,0.70312 -3.125,1.05468 -1.6016,0.35157 -3.418,0.35157 -4.9414,0 -7.8515,-3.10547 -2.9102,-3.10547 -2.9102,-8.37891 0,-5.35156 2.9297,-8.41797 2.9492,-3.0664 8.0664,-3.0664 1.6602,0 3.2422,0.35156 1.582,0.33203 3.0664,1.01562 z"
       id="path3815"
       inkscape:connector-curvature="0" />
    <path
       d="m -1230.4844,-341.63086 q -2.8906,0 -4.5703,2.26563 -1.6797,2.24609 -1.6797,6.17187 0,3.92578 1.6602,6.19141 1.6797,2.24609 4.5898,2.24609 2.8711,0 4.5508,-2.26562 1.6797,-2.26563 1.6797,-6.17188 0,-3.88672 -1.6797,-6.15234 -1.6797,-2.28516 -4.5508,-2.28516 z m 0,-3.04687 q 4.6875,0 7.3633,3.04687 2.6758,3.04688 2.6758,8.4375 0,5.37109 -2.6758,8.4375 -2.6758,3.04688 -7.3633,3.04688 -4.707,0 -7.3828,-3.04688 -2.6562,-3.06641 -2.6562,-8.4375 0,-5.39062 2.6562,-8.4375 2.6758,-3.04687 7.3828,-3.04687 z"
       id="path3817"
       inkscape:connector-curvature="0" />
    <path
       d="m -1198.8047,-333.19336 q 0,-3.96484 -1.6406,-6.21094 -1.6211,-2.26562 -4.4727,-2.26562 -2.8515,0 -4.4922,2.26562 -1.6211,2.2461 -1.6211,6.21094 0,3.96484 1.6211,6.23047 1.6407,2.24609 4.4922,2.24609 2.8516,0 4.4727,-2.24609 1.6406,-2.26563 1.6406,-6.23047 z m -12.2266,-7.63672 q 1.1329,-1.95312 2.8516,-2.89062 1.7383,-0.95703 4.1406,-0.95703 3.9844,0 6.4649,3.16406 2.5,3.16406 2.5,8.32031 0,5.15625 -2.5,8.32031 -2.4805,3.16407 -6.4649,3.16407 -2.4023,0 -4.1406,-0.9375 -1.7187,-0.95704 -2.8516,-2.91016 v 3.28125 h -3.6132 v -30.39063 h 3.6132 z"
       id="path3819"
       inkscape:connector-curvature="0" />
    <path
       d="m -1158.7461,-350.47852 v 3.84766 q -2.2461,-1.07422 -4.2383,-1.60156 -1.9922,-0.52735 -3.8476,-0.52735 -3.2227,0 -4.9805,1.25 -1.7383,1.25 -1.7383,3.55469 0,1.9336 1.1524,2.92969 1.1718,0.97656 4.414,1.58203 l 2.3828,0.48828 q 4.4141,0.83985 6.5039,2.96875 2.1094,2.10938 2.1094,5.66406 0,4.23829 -2.8515,6.42579 -2.8321,2.1875 -8.3204,2.1875 -2.0703,0 -4.414,-0.46875 -2.3242,-0.46875 -4.8242,-1.38672 v -4.0625 q 2.4023,1.34765 4.707,2.03125 2.3047,0.68359 4.5312,0.68359 3.3789,0 5.2149,-1.32812 1.8359,-1.32813 1.8359,-3.78907 0,-2.14843 -1.3281,-3.35937 -1.3086,-1.21094 -4.3164,-1.81641 l -2.4024,-0.46875 q -4.414,-0.8789 -6.3867,-2.7539 -1.9726,-1.875 -1.9726,-5.21485 0,-3.86719 2.7148,-6.09375 2.7344,-2.22656 7.5195,-2.22656 2.0508,0 4.1797,0.37109 2.1289,0.3711 4.3555,1.11328 z"
       id="path3821"
       inkscape:connector-curvature="0" />
    <path
       d="m -1150.9922,-344.15039 h 3.5938 v 21.875 h -3.5938 z m 0,-8.51563 h 3.5938 v 4.55079 h -3.5938 z"
       id="path3823"
       inkscape:connector-curvature="0" />
    <path
       d="m -1139.8984,-352.66602 h 3.5937 v 30.39063 h -3.5937 z"
       id="path3825"
       inkscape:connector-curvature="0" />
    <path
       d="m -1131.3828,-344.15039 h 3.8086 l 6.8359,18.35937 6.836,-18.35937 h 3.8085 l -8.2031,21.875 h -4.8828 z"
       id="path3827"
       inkscape:connector-curvature="0" />
    <path
       d="m -1086.4219,-334.11133 v 1.75781 h -16.5234 q 0.2344,3.71094 2.2265,5.66407 2.0118,1.93359 5.586,1.93359 2.0703,0 4.0039,-0.50781 1.9531,-0.50781 3.8672,-1.52344 v 3.39844 q -1.9336,0.82031 -3.9649,1.25 -2.0312,0.42969 -4.1211,0.42969 -5.2343,0 -8.3007,-3.04688 -3.0469,-3.04687 -3.0469,-8.24219 0,-5.37109 2.8906,-8.51562 2.9102,-3.16406 7.832,-3.16406 4.4141,0 6.9727,2.85156 2.5781,2.83203 2.5781,7.71484 z m -3.5937,-1.05469 q -0.039,-2.94921 -1.6602,-4.70703 -1.6015,-1.75781 -4.2578,-1.75781 -3.0078,0 -4.8242,1.69922 -1.7969,1.69922 -2.0703,4.78516 z"
       id="path3829"
       inkscape:connector-curvature="0" />
    <path
       d="m -1067.8477,-340.79102 q -0.6054,-0.35156 -1.3281,-0.50781 -0.7031,-0.17578 -1.5625,-0.17578 -3.0469,0 -4.6875,1.99219 -1.6211,1.97265 -1.6211,5.68359 v 11.52344 h -3.6133 v -21.875 h 3.6133 v 3.39844 q 1.1328,-1.99219 2.9492,-2.94922 1.8164,-0.97656 4.4141,-0.97656 0.3711,0 0.8203,0.0586 0.4492,0.0391 0.9961,0.13672 z"
       id="path3831"
       inkscape:connector-curvature="0" />
    <path
       d="m -1047.7109,-339.95117 q 1.3476,-2.42188 3.2226,-3.57422 1.875,-1.15234 4.4141,-1.15234 3.4179,0 5.2734,2.40234 1.8555,2.38281 1.8555,6.79687 v 13.20313 h -3.6133 v -13.08594 q 0,-3.14453 -1.1133,-4.66797 -1.1133,-1.52343 -3.3984,-1.52343 -2.793,0 -4.4141,1.85546 -1.6211,1.85547 -1.6211,5.0586 v 12.36328 h -3.6133 v -13.08594 q 0,-3.16406 -1.1132,-4.66797 -1.1133,-1.52343 -3.4375,-1.52343 -2.7539,0 -4.375,1.875 -1.6211,1.85546 -1.6211,5.03906 v 12.36328 h -3.6133 v -21.875 h 3.6133 v 3.39844 q 1.2304,-2.01172 2.9492,-2.96875 1.7187,-0.95703 4.082,-0.95703 2.3828,0 4.043,1.21093 1.6797,1.21094 2.4805,3.51563 z"
       id="path3833"
       inkscape:connector-curvature="0" />
    <path
       d="m -1015.8164,-333.27148 q -4.3555,0 -6.0352,0.99609 -1.6796,0.99609 -1.6796,3.39844 0,1.91406 1.25,3.04687 1.2695,1.11328 3.4375,1.11328 2.9882,0 4.7851,-2.10937 1.8164,-2.12891 1.8164,-5.64453 v -0.80078 z m 7.168,-1.48438 v 12.48047 h -3.5938 v -3.32031 q -1.2305,1.99218 -3.0664,2.94922 -1.8359,0.9375 -4.4922,0.9375 -3.3594,0 -5.3515,-1.875 -1.9727,-1.89454 -1.9727,-5.0586 0,-3.6914 2.4609,-5.5664 2.4805,-1.875 7.3829,-1.875 h 5.039 v -0.35157 q 0,-2.48047 -1.6406,-3.82812 -1.6211,-1.36719 -4.5703,-1.36719 -1.875,0 -3.6524,0.44922 -1.7773,0.44922 -3.4179,1.34766 v -3.32032 q 1.9726,-0.76172 3.8281,-1.13281 1.8555,-0.39062 3.6133,-0.39062 4.7461,0 7.0898,2.46093 2.3438,2.46094 2.3438,7.46094 z"
       id="path3835"
       inkscape:connector-curvature="0" />
    <path
       d="m -983.04297,-335.47852 v 13.20313 h -3.59375 v -13.08594 q 0,-3.10547 -1.21094,-4.64844 -1.21093,-1.54296 -3.63281,-1.54296 -2.91015,0 -4.58984,1.85546 -1.67969,1.85547 -1.67969,5.0586 v 12.36328 h -3.6133 v -21.875 h 3.6133 v 3.39844 q 1.28906,-1.97266 3.02734,-2.94922 1.75782,-0.97656 4.04297,-0.97656 3.76953,0 5.70313,2.34375 1.93359,2.32421 1.93359,6.85546 z"
       id="path3837"
       inkscape:connector-curvature="0" />
  </g>
</svg>
